<?xml version="1.0" standalone="no"?>
<!DOCTYPE svg PUBLIC "-//W3C//DTD SVG 20010904//EN"
 "http://www.w3.org/TR/2001/REC-SVG-20010904/DTD/svg10.dtd">
<svg version="1.0" xmlns="http://www.w3.org/2000/svg"
 width="225.000000pt" height="225.000000pt" viewBox="0 0 225.000000 225.000000"
 preserveAspectRatio="xMidYMid meet">
<metadata>
Created by potrace 1.16, written by Peter Selinger 2001-2019
</metadata>
<g transform="translate(0.000000,225.000000) scale(0.100000,-0.100000)"
fill="#000000" stroke="none">
<path d="M955 2056 c-368 -72 -647 -338 -741 -706 -27 -105 -27 -325 0 -430
90 -354 335 -599 696 -697 95 -25 328 -25 430 1 351 89 607 346 696 696 27
105 27 325 0 430 -89 349 -340 601 -691 695 -82 23 -300 28 -390 11z m-15
-266 l0 -90 185 0 185 0 0 91 c0 103 -9 98 103 54 403 -160 591 -639 407
-1034 -204 -435 -751 -577 -1144 -297 -420 300 -421 943 -1 1241 79 56 211
120 258 124 4 1 7 -39 7 -89z"/>
<path d="M550 1475 c0 -42 4 -65 11 -65 8 0 10 15 6 46 -5 51 7 48 20 -5 13
-51 30 -49 46 6 l15 48 1 -47 c2 -73 21 -57 21 17 0 79 -21 89 -40 20 -7 -25
-16 -47 -20 -50 -3 -2 -12 18 -19 45 -19 75 -41 67 -41 -15z"/>
<path d="M705 1475 c0 -61 1 -65 23 -65 12 0 22 5 22 10 0 6 -4 10 -10 10 -5
0 -10 20 -10 45 0 25 5 45 10 45 6 0 10 5 10 10 0 6 -10 10 -22 10 -22 0 -23
-4 -23 -65z"/>
<path d="M780 1475 c0 -61 1 -65 23 -65 39 0 67 27 67 65 0 38 -28 65 -67 65
-22 0 -23 -4 -23 -65z m68 12 c4 -31 -12 -57 -34 -57 -10 0 -14 14 -14 46 0
41 2 45 23 42 16 -2 23 -11 25 -31z"/>
<path d="M905 1475 c0 -61 1 -65 23 -65 12 0 22 5 22 10 0 6 -4 10 -10 10 -5
0 -10 20 -10 45 0 25 5 45 10 45 6 0 10 5 10 10 0 6 -10 10 -22 10 -22 0 -23
-4 -23 -65z"/>
<path d="M1020 1475 c0 -42 4 -65 11 -65 8 0 10 15 6 46 -5 51 7 48 20 -5 13
-51 30 -49 46 6 l15 48 1 -47 c2 -73 21 -57 21 17 0 79 -21 89 -40 20 -7 -25
-16 -47 -20 -50 -3 -2 -12 18 -19 45 -19 75 -41 67 -41 -15z"/>
<path d="M1183 1475 c-17 -52 -18 -65 -7 -65 8 0 14 7 14 15 0 10 10 15 30 15
20 0 30 -5 30 -15 0 -8 5 -15 10 -15 14 0 12 16 -9 75 -25 71 -42 69 -68 -10z
m49 10 c4 -20 1 -25 -14 -25 -14 0 -18 5 -14 16 3 9 6 22 6 30 0 23 17 7 22
-21z"/>
<path d="M1300 1475 c0 -37 4 -65 10 -65 6 0 10 11 10 25 0 15 6 25 14 25 16
0 46 26 46 40 0 17 -32 40 -56 40 -23 0 -24 -3 -24 -65z m55 25 c0 -8 -8 -16
-17 -18 -13 -2 -18 3 -18 18 0 15 5 20 18 18 9 -2 17 -10 17 -18z"/>
<path d="M1410 1475 c0 -37 4 -65 10 -65 6 0 10 11 10 25 0 15 6 25 14 25 16
0 46 26 46 40 0 17 -32 40 -56 40 -23 0 -24 -3 -24 -65z m55 25 c0 -8 -8 -16
-17 -18 -13 -2 -18 3 -18 18 0 15 5 20 18 18 9 -2 17 -10 17 -18z"/>
<path d="M1520 1475 l0 -65 30 0 c17 0 30 5 30 10 0 6 -9 10 -20 10 -13 0 -20
7 -20 20 0 13 7 20 20 20 11 0 20 5 20 10 0 6 -9 10 -20 10 -11 0 -20 7 -20
15 0 8 9 15 20 15 11 0 20 5 20 10 0 6 -13 10 -30 10 l-30 0 0 -65z"/>
<path d="M1620 1475 c0 -37 4 -65 10 -65 6 0 10 11 10 25 0 14 5 25 10 25 6 0
16 -11 22 -25 6 -14 17 -25 25 -25 10 0 10 6 -4 26 -13 21 -14 30 -5 45 15 24
15 24 -4 43 -8 9 -26 16 -40 16 -23 0 -24 -3 -24 -65z m55 25 c0 -8 -8 -16
-17 -18 -13 -2 -18 3 -18 18 0 15 5 20 18 18 9 -2 17 -10 17 -18z"/>
<path d="M605 1251 c-68 -30 -94 -120 -53 -181 29 -42 61 -60 112 -60 31 0 45
7 77 39 34 34 39 44 39 85 0 38 -6 52 -33 82 -26 29 -42 37 -77 40 -25 2 -54
0 -65 -5z"/>
<path d="M1534 1244 c-83 -41 -86 -169 -4 -218 33 -19 85 -21 120 -3 34 17 70
74 70 112 0 38 -36 95 -70 112 -33 17 -78 16 -116 -3z"/>
<path d="M734 910 c-11 -4 -33 -22 -47 -40 -47 -56 -30 -152 33 -185 82 -42
178 7 186 95 6 54 -9 86 -55 117 -35 23 -79 28 -117 13z"/>
<path d="M1400 898 c-47 -32 -62 -63 -56 -118 6 -61 57 -110 116 -110 81 0
130 49 130 130 0 32 -7 48 -33 76 -44 48 -105 57 -157 22z"/>
<path d="M1058 773 c-67 -42 -77 -139 -19 -197 27 -27 38 -31 86 -31 48 0 59
4 86 31 58 59 48 157 -21 197 -36 22 -97 21 -132 0z"/>
</g>
</svg>
